<svg width="217" height="59" viewBox="0 0 217 59" fill="none" xmlns="http://www.w3.org/2000/svg">
<g clip-path="url(#clip0_1_38)">
<path fill-rule="evenodd" clip-rule="evenodd" d="M28.0118 15.8225C26.8416 13.8948 25.2389 12.3838 23.1974 11.2895C21.1591 10.1952 18.8187 9.64491 16.1921 9.64491H0V48.6H9.06592V35.2427H16.1889C18.8219 35.2427 21.1559 34.6861 23.1942 33.5727C25.2326 32.4624 26.8384 30.9323 28.0087 28.9825C29.1757 27.0325 29.7576 24.8344 29.7576 22.3881C29.7576 19.9419 29.1724 17.7502 28.0087 15.8225H28.0118ZM20.1384 24.5576C19.7663 25.1906 19.2384 25.6805 18.5548 26.0336C17.8711 26.3835 17.0793 26.5617 16.1921 26.5617H9.07228V18.2687H16.1921C17.0825 18.2687 17.8711 18.4468 18.5548 18.7968C19.2416 19.1499 19.7695 19.6429 20.1384 20.2727C20.5104 20.9058 20.6948 21.6088 20.6948 22.3881C20.6948 23.1675 20.5072 23.9278 20.1384 24.5576Z" fill="white"/>
<path fill-rule="evenodd" clip-rule="evenodd" d="M54.4592 20.7754C55.5498 22.1178 56.3097 23.9309 56.7389 26.2054L48.3314 29.1924C48.1692 28.397 47.8766 27.7673 47.4505 27.3156C46.8017 26.6285 46.0513 26.2849 45.0878 26.2849C44.1244 26.2849 43.2625 26.6126 42.5026 27.2583C41.7393 27.9072 41.1575 28.8266 40.7504 30.013C40.3435 31.1995 40.14 32.5548 40.14 34.0753V48.6H31.516V18.5486H39.1922V23.7242C39.8219 22.4995 40.5756 21.4625 41.4467 20.6068C42.3181 19.7542 43.3261 19.0958 44.4772 18.6313C45.6252 18.1669 46.8496 17.9347 48.1502 17.9347C50.8211 17.9347 52.9264 18.8795 54.4653 20.7722L54.4592 20.7754Z" fill="white"/>
<path fill-rule="evenodd" clip-rule="evenodd" d="M118.579 25.6741C117.3 23.3011 115.555 21.4179 113.348 20.0246C111.141 18.6345 108.702 17.9379 106.034 17.9379C103.366 17.9379 101.045 18.5232 99.0797 19.6906C97.9412 20.3714 96.9618 21.2175 96.1318 22.2259V18.5486H88.4556V59.091H97.0794V45.9661C97.1463 46.0296 97.2098 46.0964 97.2734 46.1568C98.3674 47.159 99.6551 47.9192 101.14 48.4407C102.622 48.9562 104.253 49.2201 106.037 49.2201C108.743 49.2201 111.198 48.5236 113.408 47.1334C115.615 45.7433 117.348 43.8505 118.611 41.4554C119.87 39.0631 120.499 36.4356 120.499 33.5792C120.499 30.7224 119.86 28.0535 118.582 25.6773L118.579 25.6741ZM110.791 37.3327C110.142 38.4618 109.262 39.3623 108.149 40.0301C107.039 40.6951 105.815 41.0323 104.476 41.0323C103.067 41.0323 101.808 40.7078 100.695 40.0588C99.582 39.4098 98.7011 38.5222 98.0524 37.39C97.4039 36.2575 97.0794 34.969 97.0794 33.5218C97.0794 32.1508 97.3944 30.9006 98.0238 29.7649C98.6566 28.6324 99.528 27.7418 100.638 27.0961C101.751 26.4471 103.013 26.1227 104.419 26.1227C105.824 26.1227 107.033 26.4503 108.149 27.0961C109.259 27.745 110.142 28.6453 110.788 29.7936C111.437 30.9452 111.761 32.2047 111.761 33.5758C111.761 34.9468 111.434 36.2032 110.788 37.3327H110.791Z" fill="white"/>
<path fill-rule="evenodd" clip-rule="evenodd" d="M131.324 45.0943C131.454 46.5417 131.683 47.7125 132.02 48.6H122.506V7.30685H131.13V39.9158C131.13 41.9198 131.193 43.6437 131.324 45.0912V45.0943Z" fill="white"/>
<path fill-rule="evenodd" clip-rule="evenodd" d="M155.501 18.5454H164.735L151.494 50.3239C150.346 53.1042 148.832 55.2673 146.959 56.8069C145.086 58.3465 142.593 59.1163 139.477 59.1163C138.218 59.1163 136.994 58.9795 135.804 58.6997C134.618 58.4198 133.597 58.0793 132.745 57.6689L135.359 49.4333C136.138 49.8404 136.889 50.1553 137.614 50.3781C138.335 50.6007 139.048 50.7122 139.754 50.7122C140.755 50.7122 141.563 50.4321 142.174 49.8755C142.784 49.3187 143.334 48.5202 143.814 47.4832L144.387 46.2108L132.856 18.5486H142.091L148.769 36.2319L155.501 18.5486V18.5454Z" fill="white"/>
<path fill-rule="evenodd" clip-rule="evenodd" d="M86.1342 32.2429C86.1342 29.5708 85.4854 27.1406 84.1848 24.9521C82.8842 22.7603 81.1068 21.0457 78.8458 19.8051C76.5848 18.5582 74.0631 17.9379 71.2807 17.9379C68.4984 17.9379 65.8272 18.6186 63.4931 19.9705C61.1559 21.3225 59.318 23.1993 57.9855 25.5914C56.6499 27.9836 55.9824 30.6651 55.9824 33.6331C55.9824 36.6011 56.6468 39.3715 57.9855 41.7287C59.3211 44.0859 61.2035 45.9245 63.63 47.2385C66.0593 48.5553 68.8481 49.217 72.0026 49.217C75.8979 49.217 79.0684 48.2912 81.5136 46.4305C83.3549 45.0372 84.716 43.2431 85.587 41.0545L77.2495 38.1469C77.0333 39.2125 76.4546 40.0652 75.5037 40.7013C74.5021 41.3663 73.2206 41.7035 71.6654 41.7035C70.1106 41.7035 68.8164 41.3694 67.6875 40.7013C66.5554 40.0366 65.6936 39.06 65.0989 37.778C64.8066 37.145 64.587 36.4482 64.4344 35.6914H85.7906C86.0132 34.5046 86.1277 33.3564 86.1277 32.2429H86.1342ZM64.7906 29.4565C64.8701 29.2337 64.9527 29.0207 65.0482 28.817C65.6046 27.6114 66.3995 26.6857 67.4394 26.0336C68.476 25.3847 69.7385 25.0602 71.2202 25.0602C72.2602 25.0602 73.2141 25.2543 74.0855 25.6455C74.9599 26.0368 75.6532 26.5553 76.1715 27.2042C76.6898 27.8531 76.9888 28.6071 77.0619 29.4595H64.7875L64.7906 29.4565Z" fill="white"/>
<path fill-rule="evenodd" clip-rule="evenodd" d="M211.051 14.8395L189.328 1.55554C182.333 -2.71977 173.353 2.3158 173.353 10.5165V47.8777C173.353 55.3341 177.731 59.1832 183.357 59.1832C188.632 59.1832 192.954 55.0956 193.332 49.9168C198.49 49.376 202.745 45.0181 202.509 39.1139L211.976 33.3246C215.324 31.2759 217 27.8213 217 24.3635C217 20.9058 215.823 17.4862 211.051 14.8332V14.8395ZM183.357 53.2346C181.118 53.2346 179.306 51.4182 179.306 49.1821C179.306 46.9457 181.118 45.1263 183.357 45.1263C185.595 45.1263 187.411 46.9426 187.411 49.1821C187.411 51.4213 185.595 53.2346 183.357 53.2346ZM196.56 39.7151C196.56 41.2452 195.574 44.0224 191.927 44.0224C191.513 43.3383 191.02 42.7022 190.464 42.1392C189.901 41.5762 189.274 41.0766 188.594 40.6535C187.071 39.7152 185.277 39.1743 183.357 39.1743C182.034 39.1743 180.771 39.4322 179.617 39.8966C179.515 39.9379 179.401 39.9857 179.302 40.0301V31.0691C179.302 28.6897 181.229 26.7621 183.608 26.7621H192.251C194.629 26.7621 196.556 28.6897 196.556 31.0691V39.7151H196.56ZM208.872 28.254L202.509 32.1443V31.066C202.509 25.4006 197.917 20.8072 192.254 20.8072H183.611C182.075 20.8072 180.616 21.1443 179.306 21.7551V10.5197C179.306 6.96647 183.194 4.78111 186.228 6.63565L208.876 20.4859C211.779 22.2609 211.779 26.4789 208.876 28.254H208.872Z" fill="white"/>
</g>
<defs>
<clipPath id="clip0_1_38">
<rect width="217" height="59" fill="white"/>
</clipPath>
</defs>
</svg>
